<?xml version="1.0" encoding="UTF-8"?>
<svg xmlns="http://www.w3.org/2000/svg" width="19" height="19" viewBox="0 0 19 19" fill="none">
  <path d="M17.8001 7.66341C17.5216 6.39491 16.959 5.23279 16.1822 4.24678C15.3989 3.25093 14.3978 2.43477 13.2501 1.87069C12.1187 1.31288 10.8453 1 9.49955 1C8.1538 1 6.90844 1.30573 5.78699 1.85192C4.63116 2.41331 3.62185 3.23037 2.83231 4.22801C2.05815 5.20508 1.49471 6.35647 1.21073 7.61335C1.07235 8.22033 1 8.85234 1 9.50045C1 10.1486 1.06873 10.7457 1.19987 11.3366C1.47843 12.6051 2.04096 13.7672 2.81784 14.7532C3.60105 15.7491 4.60222 16.5652 5.74991 17.1293C6.88131 17.6871 8.1538 18 9.49955 18C10.8453 18 12.0897 17.6943 13.2121 17.1481C14.3679 16.5867 15.3772 15.7705 16.1668 14.7729C16.9409 13.7958 17.5044 12.6453 17.7893 11.3875C17.9276 10.7806 18 10.1494 18 9.50045C18 8.85145 17.9313 8.25519 17.8001 7.66341ZM15.5192 14.2607L11.9089 11.4054L11.6773 11.2222C11.4169 11.544 11.085 11.8059 10.706 11.9856L10.8344 12.2502L12.835 16.3721C11.8257 16.8522 10.6943 17.1204 9.49955 17.1204C8.30484 17.1204 7.14811 16.8459 6.13066 16.3552C5.08969 15.8554 4.18077 15.1305 3.4663 14.2437L7.0857 11.3983L7.31723 11.2159C7.05767 10.8959 6.87046 10.5169 6.7773 10.103C6.73299 9.90898 6.71038 9.70695 6.71038 9.50045C6.71038 9.29395 6.7348 9.0803 6.78092 8.88095C6.87588 8.47063 7.064 8.09518 7.32175 7.77783L7.09113 7.59547L3.47986 4.74023C4.19886 3.85255 5.11592 3.12668 6.16412 2.62875C7.17343 2.1496 8.30484 1.88053 9.49955 1.88053V6.74355C9.93637 6.74355 10.3506 6.84277 10.7187 7.01977C11.0949 7.20124 11.4241 7.46316 11.6819 7.78409L11.9143 7.60172L15.5337 4.75722C16.2473 5.64311 16.7655 6.6908 17.0242 7.83504L12.5112 8.83357L12.2218 8.89793C12.2661 9.09192 12.2887 9.29395 12.2887 9.50045C12.2887 9.70695 12.2643 9.9197 12.2182 10.1191L12.5067 10.1852L17.0133 11.2105H17.0142C16.7501 12.345 16.231 13.3819 15.5192 14.2607Z" fill="#D4D4D4FF" stroke="#D4D4D4FF" stroke-width="0.5" stroke-miterlimit="10"></path>
</svg>